<?xml version="1.0" encoding="UTF-8"?>
<svg id="Layer_1" data-name="Layer 1" xmlns="http://www.w3.org/2000/svg" viewBox="0 0 326.13 112.08">
  <defs>
    <style>
      .cls-1, .cls-2 {
        fill: #125770;
      }

      .cls-2 {
        opacity: .4;
      }
    </style>
  </defs>
  <g>
    <path class="cls-1" d="M86.01,66.4c.23-3.29-4.55-4.04-5.57-.9-1.48,4.58-4.04,9.68-8.46,12.89,2.26,1.08,13.39-2.79,14.03-11.99Z"/>
    <path class="cls-1" d="M22.51,48c-1.95,1.57-3.25,13.29,4.78,17.82,2.87,1.62,5.61-2.36,3.21-4.63-3.5-3.31-6.99-7.82-7.99-13.19Z"/>
    <path class="cls-1" d="M61.7,13.03c-9.19,6.77-13.98,17.13-15.02,19.57.94-.18,1.91-.5,2.79-.24,2.98.91,6.07,4.17,6.07,4.17,1.71,1.82,3.03,3.89,4,6.08,1.23-.07,1.87.34,2.48.63-3.78-14.88-2.04-24.98-.33-30.21Z"/>
    <path class="cls-1" d="M60.4,57.79c1.64-5.07,1.26-10.44-.85-15.18-.2.01-.4.02-.63.06-3.86.69-6.55,3.42-6.55,3.42-6.09,5.05-8.94,12.88-7.48,20.53.34,1.79.93,3.5,1.69,5.12,6.55-2.28,11.71-7.4,13.83-13.95Z"/>
    <path class="cls-1" d="M85.64,25.74l-21.08-11.83c-4.36,11.25-1.39,23.53.26,28.67.69-.57,1.35-1.21,2.2-1.36,3.07-.56,7.38.92,7.38.92,7.55,2.6,13.09,8.91,14.55,16.56,1.46,7.65-1.39,15.47-7.48,20.53h0c-6.09,5.05-14.48,6.56-22.03,3.97h0c-5.78-1.99-10.36-6.17-12.86-11.44-.87.3-1.77.57-2.69.76h0c-7.81,1.69-15.96-.81-21.37-6.54-5.41-5.73-7.26-13.84-4.86-21.26h0c2.4-7.42,8.7-13.03,16.51-14.72,0,0,3.69-1.19,7.44-.04,1.31.4,1.82,1.01,2.21,1.55,5.26-10.05,10.99-16.32,15.74-20.2-5.75-2.33-12.38-1.97-17.84,1.1l-23.76,13.33c-6.21,3.49-10.07,9.99-10.07,16.96v26.67c0,6.97,3.86,13.47,10.07,16.96l23.76,13.33c3.11,1.74,6.59,2.62,10.07,2.62s6.97-.87,10.07-2.62l23.76-13.33c6.21-3.49,10.07-9.99,10.07-16.96v-26.67c0-6.98-3.86-13.47-10.07-16.96Z"/>
  </g>
  <path class="cls-2" d="M51.8,112.08c-4.28,0-8.49-1.12-12.17-3.25l-27.47-15.86c-7.5-4.33-12.17-12.41-12.17-21.08v-31.71c0-8.67,4.66-16.74,12.17-21.08L39.63,3.25c7.5-4.33,16.83-4.33,24.33,0l27.47,15.86c7.5,4.33,12.17,12.41,12.17,21.08v31.71c0,8.67-4.66,16.74-12.17,21.08l-27.47,15.86c-3.68,2.13-7.89,3.25-12.17,3.25ZM51.8,3.49c-3.75,0-7.49.96-10.84,2.89l-26.75,15.44c-6.68,3.86-10.84,11.05-10.84,18.77v30.89c0,7.72,4.15,14.91,10.84,18.77l26.75,15.44c6.55,3.78,15.11,3.79,21.67,0l26.75-15.44c6.68-3.86,10.84-11.05,10.84-18.77v-30.89c0-7.72-4.15-14.91-10.84-18.77l-26.75-15.44c-3.34-1.93-7.09-2.89-10.83-2.89Z"/>
  <g>
    <path class="cls-1" d="M146.45,38.7c4.62,0,8.98,1.81,12.25,5.09l.55.55,7.5-7.5-.54-.55c-5.23-5.29-12.24-8.2-19.76-8.2-15.42,0-27.96,12.54-27.96,27.96s12.54,27.96,27.96,27.96c7.52,0,14.54-2.91,19.76-8.2l.54-.55-7.5-7.5-.55.55c-3.28,3.28-7.63,5.09-12.25,5.09-9.56,0-17.34-7.78-17.34-17.34s7.78-17.34,17.34-17.34Z"/>
    <polygon class="cls-1" points="207.05 50.73 184.45 50.73 184.45 33.87 173.83 28.08 173.83 84 184.45 84 184.45 61.35 207.05 61.35 207.05 84 217.67 84 217.67 33.06 207.05 28.57 207.05 50.73"/>
    <polygon class="cls-1" points="255.91 38.7 259.45 28.08 227.39 28.08 227.39 84 255.91 84 259.45 73.38 238 73.38 238 61.35 253.1 61.35 253.1 50.73 238 50.73 238 38.7 255.91 38.7"/>
    <path class="cls-1" d="M307.38,49.21c0-11.65-9.51-21.13-21.19-21.13h-19.63v55.92h10.62v-13.59h7.3l8.09,13.59h13.9l-9.77-16.37c6.62-3.76,10.69-10.74,10.69-18.42ZM296.76,49.21c0,5.83-4.74,10.58-10.58,10.58h-9.01v-21.09h9.01c5.83,0,10.58,4.72,10.58,10.52Z"/>
    <polygon class="cls-1" points="315.52 27.81 315.52 84.27 326.13 84.27 326.13 33.6 315.52 27.81"/>
  </g>
</svg>