<?xml version="1.0" encoding="UTF-8" standalone="no"?>
<svg
   xmlns:dc="http://purl.org/dc/elements/1.1/"
   xmlns:cc="http://creativecommons.org/ns#"
   xmlns:rdf="http://www.w3.org/1999/02/22-rdf-syntax-ns#"
   xmlns:svg="http://www.w3.org/2000/svg"
   xmlns="http://www.w3.org/2000/svg"
   xmlns:sodipodi="http://sodipodi.sourceforge.net/DTD/sodipodi-0.dtd"
   xmlns:inkscape="http://www.inkscape.org/namespaces/inkscape"
   id="Layer_1"
   data-name="Layer 1"
   viewBox="0 0 103.61 112.0875"
   version="1.1"
   sodipodi:docname="favicon.svg"
   width="103.61"
   height="112.0875"
   inkscape:version="1.0.2 (e86c870879, 2021-01-15)">
  <metadata
     id="metadata35">
    <rdf:RDF>
      <cc:Work
         rdf:about="">
        <dc:format>image/svg+xml</dc:format>
        <dc:type
           rdf:resource="http://purl.org/dc/dcmitype/StillImage" />
        <dc:title></dc:title>
      </cc:Work>
    </rdf:RDF>
  </metadata>
  <sodipodi:namedview
     pagecolor="#ffffff"
     bordercolor="#666666"
     borderopacity="1"
     objecttolerance="10"
     gridtolerance="10"
     guidetolerance="10"
     inkscape:pageopacity="0"
     inkscape:pageshadow="2"
     inkscape:window-width="1510"
     inkscape:window-height="918"
     id="namedview33"
     showgrid="false"
     fit-margin-top="0"
     fit-margin-left="0"
     fit-margin-right="0"
     fit-margin-bottom="0"
     inkscape:zoom="4.0014717"
     inkscape:cx="163.075"
     inkscape:cy="56.037501"
     inkscape:window-x="961"
     inkscape:window-y="139"
     inkscape:window-maximized="0"
     inkscape:current-layer="Layer_1" />
  <defs
     id="defs4">
    <style
       id="style2">
      .cls-1, .cls-2 {
        fill: #125770;
      }

      .cls-2 {
        opacity: .4;
      }
    </style>
  </defs>
  <g
     id="g16"
     transform="translate(0.01,-0.0025)">
    <path
       class="cls-1"
       d="m 86.01,66.4 c 0.23,-3.29 -4.55,-4.04 -5.57,-0.9 -1.48,4.58 -4.04,9.68 -8.46,12.89 2.26,1.08 13.39,-2.79 14.03,-11.99 z"
       id="path6" />
    <path
       class="cls-1"
       d="m 22.51,48 c -1.95,1.57 -3.25,13.29 4.78,17.82 2.87,1.62 5.61,-2.36 3.21,-4.63 C 27,57.88 23.51,53.37 22.51,48 Z"
       id="path8" />
    <path
       class="cls-1"
       d="M 61.7,13.03 C 52.51,19.8 47.72,30.16 46.68,32.6 c 0.94,-0.18 1.91,-0.5 2.79,-0.24 2.98,0.91 6.07,4.17 6.07,4.17 1.71,1.82 3.03,3.89 4,6.08 1.23,-0.07 1.87,0.34 2.48,0.63 C 58.24,28.36 59.98,18.26 61.69,13.03 Z"
       id="path10" />
    <path
       class="cls-1"
       d="m 60.4,57.79 c 1.64,-5.07 1.26,-10.44 -0.85,-15.18 -0.2,0.01 -0.4,0.02 -0.63,0.06 -3.86,0.69 -6.55,3.42 -6.55,3.42 -6.09,5.05 -8.94,12.88 -7.48,20.53 0.34,1.79 0.93,3.5 1.69,5.12 6.55,-2.28 11.71,-7.4 13.83,-13.95 z"
       id="path12" />
    <path
       class="cls-1"
       d="M 85.64,25.74 64.56,13.91 c -4.36,11.25 -1.39,23.53 0.26,28.67 0.69,-0.57 1.35,-1.21 2.2,-1.36 3.07,-0.56 7.38,0.92 7.38,0.92 7.55,2.6 13.09,8.91 14.55,16.56 1.46,7.65 -1.39,15.47 -7.48,20.53 v 0 c -6.09,5.05 -14.48,6.56 -22.03,3.97 v 0 C 53.66,81.21 49.08,77.03 46.58,71.76 c -0.87,0.3 -1.77,0.57 -2.69,0.76 v 0 C 36.08,74.21 27.93,71.71 22.52,65.98 17.11,60.25 15.26,52.14 17.66,44.72 v 0 c 2.4,-7.42 8.7,-13.03 16.51,-14.72 0,0 3.69,-1.19 7.44,-0.04 1.31,0.4 1.82,1.01 2.21,1.55 C 49.08,21.46 54.81,15.19 59.56,11.31 53.81,8.98 47.18,9.34 41.72,12.41 L 17.96,25.74 C 11.75,29.23 7.89,35.73 7.89,42.7 v 26.67 c 0,6.97 3.86,13.47 10.07,16.96 l 23.76,13.33 c 3.11,1.74 6.59,2.62 10.07,2.62 3.48,0 6.97,-0.87 10.07,-2.62 L 85.62,86.33 C 91.83,82.84 95.69,76.34 95.69,69.37 V 42.7 c 0,-6.98 -3.86,-13.47 -10.07,-16.96 z"
       id="path14" />
  </g>
  <path
     class="cls-2"
     d="m 51.81,112.0775 c -4.28,0 -8.49,-1.12 -12.17,-3.25 L 12.17,92.9675 C 4.67,88.6375 0,80.5575 0,71.8875 v -31.71 c 0,-8.67 4.66,-16.74 12.17,-21.08 l 27.47,-15.85 c 7.5,-4.33 16.83,-4.33 24.33,0 l 27.47,15.86 c 7.5,4.33 12.17,12.41 12.17,21.08 v 31.71 c 0,8.67 -4.66,16.74 -12.17,21.08 l -27.47,15.86 c -3.68,2.13 -7.89,3.25 -12.17,3.25 z m 0,-108.59 c -3.75,0 -7.49,0.96 -10.84,2.89 l -26.75,15.44 c -6.68,3.86 -10.84,11.05 -10.84,18.77 v 30.89 c 0,7.72 4.15,14.91 10.84,18.77 l 26.75,15.44 c 6.55,3.78 15.11,3.79 21.67,0 l 26.75,-15.44 c 6.68,-3.86 10.84,-11.05 10.84,-18.77 v -30.89 c 0,-7.72 -4.15,-14.91 -10.84,-18.77 L 62.64,6.3775 c -3.34,-1.93 -7.09,-2.89 -10.83,-2.89 z"
     id="path18" />
</svg>
